# xmcd CD database file
#
# Track frame offsets:
#	150
#	20752
#	41057
#	60802
#	77822
#	93120
#	111322
#	133837
#	149395
#	165330
#
# Disc length: 2470 seconds
#
# Revision: 3
# Processed by: cddbd v1.5.2PL0 Copyright (c) Steve Scherf et al.
# Submitted via: CDex 1.70beta2
#
DISCID=7e09a40a
DTITLE=松任谷 由実 - ALARM a'la mode
DYEAR=1986
DGENRE=New Age
TTITLE0=Holiday in Acapulco
TTITLE1=ジェラシーと云う名の悪夢
TTITLE2=パジャマとレインコート
TTITLE3=白い服、白い靴
TTITLE4=土曜日は大キライ
TTITLE5=ホライズンを追いかけて～L'aventure au decert
TTITLE6=Autumn Park
TTITLE7=20 minutes
TTITLE8=3-D のクリスマスカード
TTITLE9=さよならハリケーン
EXTD=YEAR: 1986
EXTT0=
EXTT1=
EXTT2=
EXTT3=
EXTT4=
EXTT5=
EXTT6=
EXTT7=
EXTT8=
EXTT9=
PLAYORDER=
